<?xml version="1.0" standalone="no"?>
<!DOCTYPE svg PUBLIC "-//W3C//DTD SVG 20010904//EN"
 "http://www.w3.org/TR/2001/REC-SVG-20010904/DTD/svg10.dtd">
<svg version="1.0" xmlns="http://www.w3.org/2000/svg"
 width="700.000000pt" height="700.000000pt" viewBox="0 0 700.000000 700.000000"
 preserveAspectRatio="xMidYMid meet">
<metadata>
Created by potrace 1.14, written by Peter Selinger 2001-2017
</metadata>
<g transform="translate(0.000000,700.000000) scale(0.100000,-0.100000)"
fill="#000000" stroke="none">
<path d="M4277 6683 c-2 -5 -16 -44 -30 -88 -14 -44 -85 -260 -156 -481 l-131
-401 -72 -29 c-168 -67 -347 -219 -457 -386 -151 -229 -221 -491 -221 -833 0
-274 14 -364 156 -980 158 -683 203 -928 225 -1215 20 -268 -1 -502 -62 -685
-45 -134 -91 -208 -188 -306 -70 -70 -102 -94 -172 -128 -104 -50 -206 -77
-347 -92 -97 -10 -288 -6 -367 7 l-30 5 0 297 c-1 181 -5 306 -11 321 -10 22
-13 20 -57 -51 -67 -108 -239 -337 -344 -458 -179 -207 -407 -412 -601 -538
l-92 -61 42 -5 c24 -3 111 -8 193 -11 371 -14 808 -63 1497 -165 358 -54 439
-61 583 -50 497 38 815 315 891 775 41 252 -3 617 -201 1655 -128 674 -154
870 -136 1027 52 438 306 797 646 910 73 25 93 27 240 28 170 0 246 -14 370
-70 72 -32 154 -148 260 -368 59 -121 59 -121 70 23 8 91 -7 271 -30 383 -13
62 -12 74 6 145 11 42 22 116 26 164 l6 87 41 5 c40 5 797 37 864 36 l32 0 0
55 0 55 -97 1 c-217 1 -839 25 -850 32 -7 5 -13 17 -13 27 0 22 -38 13 485
115 215 42 398 79 409 82 16 4 18 12 12 51 -3 25 -8 47 -10 49 -2 3 -214 -22
-470 -54 -407 -50 -468 -56 -476 -43 -6 8 -9 21 -7 29 1 9 170 79 428 180
l426 165 -15 45 c-8 26 -16 47 -17 49 -3 3 -700 -209 -848 -258 l-57 -19 -14
27 c-22 42 -95 121 -128 138 -25 13 -48 14 -161 5 -229 -19 -557 -51 -681 -67
-65 -8 -119 -14 -121 -12 -1 2 38 188 86 413 49 226 89 413 89 418 0 4 -22 7
-50 7 l-49 0 -24 -77 c-13 -43 -75 -238 -137 -434 l-113 -357 -70 -11 c-38 -6
-72 -9 -75 -7 -4 5 192 887 206 924 3 8 -10 12 -46 12 -28 0 -53 -3 -55 -7z
m473 -1639 c36 -9 86 -27 113 -41 89 -45 56 -61 -128 -60 -160 0 -280 -19
-424 -65 -249 -79 -429 -213 -569 -421 -51 -77 -52 -78 -54 -45 -10 190 48
354 168 474 91 92 223 146 420 173 107 15 397 6 474 -15z"/>
<path d="M3245 5507 c-471 -183 -850 -427 -1251 -805 l-94 -90 162 -191 c90
-104 167 -190 173 -190 5 -1 37 27 71 60 l62 62 11 -39 c24 -83 51 -285 57
-419 6 -132 -7 -377 -25 -440 l-7 -27 -29 43 c-54 83 -163 224 -250 324 -47
55 -89 105 -91 112 -3 6 13 43 36 82 26 43 39 75 34 83 -12 19 -298 351 -316
365 -12 11 -28 -8 -105 -125 -110 -166 -151 -237 -236 -407 -69 -139 -161
-360 -155 -375 2 -5 95 -93 208 -195 l205 -186 23 71 c14 40 28 68 33 63 16
-16 68 -150 88 -228 59 -222 48 -453 -31 -683 -17 -50 -33 -90 -36 -87 -2 2
-19 40 -37 84 -36 87 -73 155 -148 274 l-49 77 37 121 c20 67 33 125 28 129
-125 119 -378 338 -384 333 -3 -5 -17 -39 -29 -78 -102 -316 -286 -726 -445
-990 -131 -218 -300 -442 -414 -548 -28 -26 -44 -47 -36 -47 53 0 679 143 823
188 l62 20 0 -55 c0 -131 -57 -421 -122 -622 -66 -205 -174 -442 -253 -560
-14 -19 -23 -36 -21 -38 8 -8 223 70 310 111 470 226 981 786 1284 1408 48 98
90 178 93 178 7 0 81 -279 98 -370 24 -122 42 -304 48 -474 l6 -179 121 6
c327 15 510 140 594 407 43 134 47 176 46 440 -1 356 -22 487 -214 1325 -155
677 -165 741 -164 1050 1 257 20 385 83 576 62 184 117 286 260 480 18 26 12
24 -114 -24z"/>
<path d="M5965 3345 c13 -72 17 -366 7 -455 -37 -313 -162 -514 -362 -585
-171 -60 -378 -30 -555 80 -213 132 -415 407 -556 753 -18 46 -35 78 -37 72
-6 -18 27 -239 64 -430 131 -664 355 -1118 641 -1299 208 -131 506 -115 715
39 285 210 359 674 217 1359 -28 136 -105 417 -129 471 -10 24 -10 24 -5 -5z"/>
<path d="M4704 965 c-4 -11 -26 -63 -49 -115 -98 -226 -234 -400 -394 -506
l-45 -29 250 -3 c138 -1 275 1 305 6 l54 7 -1 145 c0 98 -6 172 -18 230 -18
85 -64 230 -84 266 -10 19 -11 18 -18 -1z"/>
</g>
</svg>
